<?xml version="1.0" encoding="UTF-8" standalone="no"?>
<svg
   version="1.0"
   width="1280pt"
   height="1280pt"
   viewBox="0 0 1280 1280"
   preserveAspectRatio="xMidYMid"
   id="svg3"
   xml:space="preserve"
   xmlns="http://www.w3.org/2000/svg"
   xmlns:svg="http://www.w3.org/2000/svg"><defs
     id="defs3" /><metadata
     id="metadata1">
Created by potrace 1.15, written by Peter Selinger 2001-2017
</metadata><g
     transform="matrix(0.1,0,0,-0.1,0,1280)"
     fill="#000000"
     stroke="none"
     id="g3"><path
       id="path2"
       d="m 11174.909,11442.203 c -29.445,-0.723 -56.391,-2.717 -78.317,-6.067 -90.143,-14.618 -230.234,-63.339 -314.286,-110.847 -37.762,-21.926 -799.1103,-506.739 -1693.2304,-1080.487 l -939.0916,-606.8012 -671.2003,113.2913 c -369.0986,60.9073 -1649.3724,275.3009 -2845.593,475.0769 l -2117.1887,354.649 c -35.4022,5.664 -66.273,-3.776 -93.7484,-24.535 L 791.51682,9252.6354 c -13.6637,-12.0451 -2.85967,-28.0805 8.94573,-32.0245 48.97736,-16.3626 188.83395,-64.6434 330.45975,-108.6856 198.558,-62.1255 543.2901,-169.3355 763.7748,-238.7698 221.7027,-69.4344 587.1446,-185.1584 813.72,-255.811 225.3572,-70.6525 595.6739,-187.5851 822.2493,-258.2377 225.3573,-70.6525 592.0219,-186.3765 812.5065,-255.8109 221.7028,-69.4344 521.3695,-163.2389 666.329,-208.3103 146.1776,-46.2896 265.5536,-85.2619 265.5536,-88.9164 0,-3.6544 -557.9079,-358.1388 -1238.8521,-789.3629 l -1237.6387,-783.2783 -573.7366,142.5376 -915.758,229.8787 c -16.4381,1.6851 -32.962,3.0269 -52.8591,-9.1241 L 1007.0317,6433.9228 C 798.72856,6298.7084 295.48041,5956.1318 246.75452,5924.46 207.05116,5895.5549 193.65969,5849.2853 232.51357,5811.2257 L 1456.0035,4909.0321 C 2198.6623,4336.9989 2723.4124,3947.1 2834.3029,3880.4887 c 12.6953,-8.7655 18.4293,-11.9029 30.589,-4.2349 3576.0284,2255.0109 9386.2171,5764.3334 9439.7711,5799.6297 99.888,68.2163 221.706,194.9131 277.741,289.9285 75.525,127.906 99.89,225.356 99.89,388.588 -1.218,124.251 -4.885,152.275 -37.775,244.855 -31.003,346.454 -787.936,752.786 -1205.627,818.609 -64.866,17.358 -175.648,26.509 -263.983,24.339 z"
       style="fill:#61a3fa;fill-opacity:1;stroke-width:1.21815" /><path
       id="path2-0"
       d="M 1002.6358,2578.263 V 1530.6624 1049.5002 H 6440.3129 11877.971 V 1530.6624 2578.263 H 6440.3129 Z"
       style="fill:#a657f7;fill-opacity:1;stroke-width:1.21815" /></g></svg>
